<svg width="20" height="20" viewBox="0 0 48 48" fill="none" xmlns="http://www.w3.org/2000/svg">
  <path d="M44.5 20H24V28.5H35.8C34.7 34 30 37.5 24 37.5C16.5 37.5 10.5 31.5 10.5 24C10.5 16.5 16.5 10.5 24 10.5C27.2 10.5 30.2 11.7 32.5 13.8L38.5 7.8C34.7 4.3 29.6 2 24 2C11.8 2 2 11.8 2 24C2 36.2 11.8 46 24 46C35.5 46 45 37.7 45 24.7C45 23.1 44.8 21.5 44.5 20Z" fill="#FFC107"/>
  <path d="M4.5 13.8L11.5 19C13.4 14.3 18.2 10.5 24 10.5C27.2 10.5 30.2 11.7 32.5 13.8L38.5 7.8C34.7 4.3 29.6 2 24 2C15.4 2 8 6.9 4.5 13.8Z" fill="#FF3D00"/>
  <path d="M24 46C29.5 46 34.5 43.9 38.2 40.5L31.6 35.1C29.4 36.8 26.8 37.5 24 37.5C18 37.5 13.4 34 12.2 28.6L5.3 33.9C8.8 41 15.9 46 24 46Z" fill="#4CAF50"/>
  <path d="M44.5 20H24V28.5H35.8C35.3 31 33.9 33.3 31.6 35.1L38.2 40.5C42 37 45 31.4 45 24.7C45 23.1 44.8 21.5 44.5 20Z" fill="#1976D2"/>
</svg>
